<?xml version="1.0" encoding="UTF-8" standalone="no"?>
<svg
   xmlns:dc="http://purl.org/dc/elements/1.1/"
   xmlns:cc="http://creativecommons.org/ns#"
   xmlns:rdf="http://www.w3.org/1999/02/22-rdf-syntax-ns#"
   xmlns:svg="http://www.w3.org/2000/svg"
   xmlns="http://www.w3.org/2000/svg"
   xmlns:sodipodi="http://sodipodi.sourceforge.net/DTD/sodipodi-0.dtd"
   xmlns:inkscape="http://www.inkscape.org/namespaces/inkscape"
   width="267.34457"
   height="47.643051"
   version="1.1"
   id="svg1149"
   sodipodi:docname="orb10x_Long_Grey.svg"
   inkscape:version="0.92.4 (5da689c313, 2019-01-14)">
  <metadata
     id="metadata1153">
    <rdf:RDF>
      <cc:Work
         rdf:about="">
        <dc:format>image/svg+xml</dc:format>
        <dc:type
           rdf:resource="http://purl.org/dc/dcmitype/StillImage" />
        <dc:title></dc:title>
      </cc:Work>
    </rdf:RDF>
  </metadata>
  <sodipodi:namedview
     pagecolor="#000000"
     bordercolor="#666666"
     borderopacity="1"
     objecttolerance="10"
     gridtolerance="10"
     guidetolerance="10"
     inkscape:pageopacity="0"
     inkscape:pageshadow="2"
     inkscape:window-width="1920"
     inkscape:window-height="1017"
     id="namedview1151"
     showgrid="false"
     fit-margin-top="0"
     fit-margin-left="0"
     fit-margin-right="0"
     fit-margin-bottom="0"
     inkscape:zoom="3.363861"
     inkscape:cx="97.286587"
     inkscape:cy="27.700079"
     inkscape:window-x="-8"
     inkscape:window-y="-8"
     inkscape:window-maximized="1"
     inkscape:current-layer="g1147" />
  <desc
     id="desc997">C:\Users\Jason.Payne\Google Drive\!!Latest\Orbit110\orb10x.dxf - scale = 0.041614, origin = (1549.907351, -8508.507700), method = auto</desc>
  <defs
     id="defs1017">
    <marker
       id="DistanceX"
       orient="auto"
       refX="0"
       refY="0"
       style="overflow:visible">
      <path
         d="M 3,-3 -3,3 M 0,-5 V 5"
         style="stroke:#000000;stroke-width:0.5"
         id="path999"
         inkscape:connector-curvature="0" />
    </marker>
    <pattern
       height="8"
       id="Hatch"
       patternUnits="userSpaceOnUse"
       width="8"
       x="0"
       y="0">
      <path
         d="M8 4 l-4,4"
         linecap="square"
         stroke="#000000"
         stroke-width="0.25"
         id="path1002" />
      <path
         d="M6 2 l-4,4"
         linecap="square"
         stroke="#000000"
         stroke-width="0.25"
         id="path1004" />
      <path
         d="M4 0 l-4,4"
         linecap="square"
         stroke="#000000"
         stroke-width="0.25"
         id="path1006" />
    </pattern>
    <symbol
       id="*Model_Space" />
    <symbol
       id="*Paper_Space" />
    <symbol
       id="*Paper_Space0" />
    <symbol
       id="_DOT">
      <path
         d="m -243.81357,-215.72485 a 0.03935,0.03935 0 0 0 0.0787,0 0.03935,0.03935 0 0 0 -0.0787,0 z"
         style="fill:none;stroke:#000000;stroke-linecap:round"
         id="path1012"
         inkscape:connector-curvature="0" />
      <path
         d="m -243.85289,-215.72485 h -0.0786"
         style="fill:none;stroke:#000000;stroke-linecap:round"
         id="path1014"
         inkscape:connector-curvature="0" />
    </symbol>
  </defs>
  <g
     inkscape:groupmode="layer"
     inkscape:label="0"
     id="g1147"
     transform="translate(-335.4217,1121.2201)">
    <path
       d="m 358.2609,-1119.6461 -0.0458,10.5194"
       style="fill:none;stroke:#4b5257;stroke-width:0.43154877;stroke-miterlimit:4;stroke-dasharray:none;stroke-opacity:1"
       id="path1019"
       inkscape:connector-curvature="0" />
    <path
       d="m 371.23402,-1115.3764 -6.11926,8.3798"
       style="fill:none;stroke:#4b5257;stroke-width:0.49067062;stroke-miterlimit:4;stroke-dasharray:none;stroke-opacity:1"
       id="path1021"
       inkscape:connector-curvature="0" />
    <path
       d="m 369.42813,-1101.037 9.88099,-3.1824"
       style="fill:none;stroke:#4b5257;stroke-width:0.49058729;stroke-miterlimit:4;stroke-dasharray:none;stroke-opacity:1"
       id="path1023"
       inkscape:connector-curvature="0" />
    <path
       d="m 369.40593,-1093.6909 9.86147,3.2441"
       style="fill:none;stroke:#4b5257;stroke-width:0.49072853;stroke-miterlimit:4;stroke-dasharray:none;stroke-opacity:1"
       id="path1025"
       inkscape:connector-curvature="0" />
    <path
       d="m 365.06284,-1087.7662 6.06204,8.4272"
       style="fill:none;stroke:#4b5257;stroke-width:0.49072284;stroke-miterlimit:4;stroke-dasharray:none;stroke-opacity:1"
       id="path1027"
       inkscape:connector-curvature="0" />
    <path
       d="m 358.05176,-1085.5185 -0.0484,10.364"
       style="fill:none;stroke:#4b5257;stroke-width:0.43030441;stroke-miterlimit:4;stroke-dasharray:none;stroke-opacity:1"
       id="path1029"
       inkscape:connector-curvature="0" />
    <path
       d="m 351.09273,-1087.8508 -6.15931,8.3531"
       style="fill:none;stroke:#4b5257;stroke-width:0.49054828;stroke-miterlimit:4;stroke-dasharray:none;stroke-opacity:1"
       id="path1031"
       inkscape:connector-curvature="0" />
    <path
       d="m 336.92607,-1090.7034 9.89567,-3.1243"
       style="fill:none;stroke:#4b5257;stroke-width:0.49062359;stroke-miterlimit:4;stroke-dasharray:none;stroke-opacity:1"
       id="path1033"
       inkscape:connector-curvature="0" />
    <path
       d="m 337.0512,-1104.4754 9.83734,3.3019"
       style="fill:none;stroke:#4b5257;stroke-width:0.49048772;stroke-miterlimit:4;stroke-dasharray:none;stroke-opacity:1"
       id="path1035"
       inkscape:connector-curvature="0" />
    <path
       d="m 345.26085,-1115.5337 6.01395,8.4517"
       style="fill:none;stroke:#4b5257;stroke-width:0.49048209;stroke-miterlimit:4;stroke-dasharray:none;stroke-opacity:1"
       id="path1037"
       inkscape:connector-curvature="0" />
    <path
       d="m 345.26085,-1115.5337 13.00028,-4.1103 12.97289,4.2676 8.0751,11.157 -0.0417,13.7726 -8.14252,11.1078 -13.12155,4.1845 -13.06991,-4.3432 -8.00736,-11.2057 0.12514,-13.772 z"
       style="fill:none;stroke:#4b5257;stroke-width:3;stroke-miterlimit:4;stroke-dasharray:none;stroke-opacity:1"
       id="path1079"
       inkscape:connector-curvature="0" />
    <path
       d="m 351.2748,-1107.082 6.92497,-2.1894 6.91499,2.2748 4.31337,5.9596 -0.0222,7.3461 -4.34309,5.9247 -6.99883,2.232 -6.97128,-2.3166 -4.27099,-5.9769 0.0668,-7.3458 z"
       style="fill:none;stroke:#4b5257;stroke-width:0.31473014;stroke-miterlimit:4;stroke-dasharray:none;stroke-opacity:1"
       id="path1081"
       inkscape:connector-curvature="0" />
    <g
       aria-label="ORB10X"
       style="font-style:normal;font-weight:normal;font-size:40px;line-height:1.25;font-family:sans-serif;letter-spacing:0px;word-spacing:0px;fill:#000000;fill-opacity:1;stroke:none"
       id="text1532">
      <path
         d="m 426.26877,-1105.2275 c 0,-6.72 -4.74,-12.66 -13.92,-12.66 h -25.26 v 41.28 h 13.26 v -15.06 h 4.92 l 7.32,15.06 h 14.88 l -9.18,-17.28 c 5.34,-1.98 7.98,-6.54 7.98,-11.34 z m -13.5,0.54 c 0,2.22 -1.68,3.84 -3.72,3.84 h -8.7 v -7.62 h 8.7 c 2.04,0 3.72,1.56 3.72,3.78 z"
         style="font-style:normal;font-variant:normal;font-weight:normal;font-stretch:normal;font-size:60px;font-family:'Archivo Black';-inkscape-font-specification:'Archivo Black, Normal';font-variant-ligatures:normal;font-variant-caps:normal;font-variant-numeric:normal;font-feature-settings:normal;text-align:start;writing-mode:lr-tb;text-anchor:start;fill:#4b5257;fill-opacity:0.78431373;stroke:none;stroke-opacity:0"
         id="path1436"
         inkscape:connector-curvature="0" />
      <path
         d="m 461.2094,-1117.8875 h -27.48 v 41.28 h 27.84 c 6.66,0 12,-4.38 12,-10.98 0,-6.6 -3.6,-9.36 -7.86,-10.32 v -0.24 c 3.72,-1.08 6.9,-3.6 6.9,-9.6 0,-5.94 -5.16,-10.14 -11.4,-10.14 z m -14.22,9.06 h 9.12 c 1.68,0 3.06,1.44 3.06,3.18 v 0.6 c 0,1.8 -1.32,3.24 -3.06,3.24 h -9.12 z m 0,15.54 h 10.08 c 1.74,0 3.06,1.44 3.06,3.24 v 0.6 c 0,1.86 -1.32,3.24 -3.06,3.24 h -10.08 z"
         style="font-style:normal;font-variant:normal;font-weight:normal;font-stretch:normal;font-size:60px;font-family:'Archivo Black';-inkscape-font-specification:'Archivo Black, Normal';font-variant-ligatures:normal;font-variant-caps:normal;font-variant-numeric:normal;font-feature-settings:normal;text-align:start;writing-mode:lr-tb;text-anchor:start;fill:#4b5257;fill-opacity:0.78431373;stroke:none;stroke-opacity:0"
         id="path1438"
         inkscape:connector-curvature="0" />
      <path
         d="m 503.95002,-1085.8475 v -32.1 h -4.02 c -4.68,3.06 -12.12,6.12 -17.7,6.48 v 6.96 h 9.78 v 18.66 h -9.78 v 9.24 h 31.14 v -9.24 z"
         style="font-style:normal;font-variant:normal;font-weight:normal;font-stretch:normal;font-size:60px;font-family:'Archivo Black';-inkscape-font-specification:'Archivo Black, Normal';font-variant-ligatures:normal;font-variant-caps:normal;font-variant-numeric:normal;font-feature-settings:normal;text-align:start;writing-mode:lr-tb;text-anchor:start;fill:#4b5257;fill-opacity:0.78431373;stroke:none;stroke-opacity:0"
         id="path1440"
         inkscape:connector-curvature="0" />
      <path
         d="m 536.04815,-1118.6075 c -13.68,0 -17.58,8.58 -17.58,21.36 0,12.78 3.9,21.36 17.58,21.36 13.68,0 17.52,-8.58 17.52,-21.36 0,-12.78 -3.84,-21.36 -17.52,-21.36 z m 0,8.1 c 4.2,0 5.64,3 5.64,10.26 v 5.94 c 0,7.26 -1.44,10.32 -5.64,10.32 -4.2,0 -5.76,-3.06 -5.76,-10.32 v -5.94 c 0,-7.26 1.56,-10.26 5.76,-10.26 z"
         style="font-style:normal;font-variant:normal;font-weight:normal;font-stretch:normal;font-size:60px;font-family:'Archivo Black';-inkscape-font-specification:'Archivo Black, Normal';font-variant-ligatures:normal;font-variant-caps:normal;font-variant-numeric:normal;font-feature-settings:normal;text-align:start;writing-mode:lr-tb;text-anchor:start;fill:#4b5257;fill-opacity:0.78431373;stroke:none;stroke-opacity:0"
         id="path1442"
         inkscape:connector-curvature="0" />
      <path
         d="m 588.00627,-1098.3875 13.38,-19.5 h -14.82 l -6.3,10.56 h -0.24 l -6.24,-10.56 h -16.02 l 13.32,19.44 -14.76,21.84 h 14.88 l 7.62,-12.84 h 0.24 l 7.62,12.84 h 16.08 z"
         style="font-style:normal;font-variant:normal;font-weight:normal;font-stretch:normal;font-size:60px;font-family:'Archivo Black';-inkscape-font-specification:'Archivo Black, Normal';font-variant-ligatures:normal;font-variant-caps:normal;font-variant-numeric:normal;font-feature-settings:normal;text-align:start;writing-mode:lr-tb;text-anchor:start;fill:#4b5257;fill-opacity:0.78431373;stroke:none;stroke-opacity:0"
         id="path1444"
         inkscape:connector-curvature="0" />
    </g>
  </g>
</svg>
