<?xml version="1.0" encoding="UTF-8" standalone="no"?>
<svg
   xmlns:dc="http://purl.org/dc/elements/1.1/"
   xmlns:cc="http://creativecommons.org/ns#"
   xmlns:rdf="http://www.w3.org/1999/02/22-rdf-syntax-ns#"
   xmlns:svg="http://www.w3.org/2000/svg"
   xmlns="http://www.w3.org/2000/svg"
   xmlns:sodipodi="http://sodipodi.sourceforge.net/DTD/sodipodi-0.dtd"
   xmlns:inkscape="http://www.inkscape.org/namespaces/inkscape"
   width="263.86646"
   height="47.643051"
   version="1.1"
   id="svg1149"
   sodipodi:docname="orb10x_Long_Grey_Medium.svg"
   inkscape:version="0.92.4 (5da689c313, 2019-01-14)">
  <metadata
     id="metadata1153">
    <rdf:RDF>
      <cc:Work
         rdf:about="">
        <dc:format>image/svg+xml</dc:format>
        <dc:type
           rdf:resource="http://purl.org/dc/dcmitype/StillImage" />
        <dc:title></dc:title>
      </cc:Work>
    </rdf:RDF>
  </metadata>
  <sodipodi:namedview
     pagecolor="#ffffff"
     bordercolor="#666666"
     borderopacity="1"
     objecttolerance="10"
     gridtolerance="10"
     guidetolerance="10"
     inkscape:pageopacity="0"
     inkscape:pageshadow="2"
     inkscape:window-width="1920"
     inkscape:window-height="1017"
     id="namedview1151"
     showgrid="false"
     fit-margin-top="0"
     fit-margin-left="0"
     fit-margin-right="0"
     fit-margin-bottom="0"
     inkscape:zoom="3.363861"
     inkscape:cx="50.385286"
     inkscape:cy="-38.642428"
     inkscape:window-x="-8"
     inkscape:window-y="-8"
     inkscape:window-maximized="1"
     inkscape:current-layer="g1147"
     inkscape:pagecheckerboard="false" />
  <desc
     id="desc997">C:\Users\Jason.Payne\Google Drive\!!Latest\Orbit110\orb10x.dxf - scale = 0.041614, origin = (1549.907351, -8508.507700), method = auto</desc>
  <defs
     id="defs1017">
    <marker
       id="DistanceX"
       orient="auto"
       refX="0"
       refY="0"
       style="overflow:visible">
      <path
         d="M 3,-3 -3,3 M 0,-5 V 5"
         style="stroke:#000000;stroke-width:0.5"
         id="path999"
         inkscape:connector-curvature="0" />
    </marker>
    <pattern
       height="8"
       id="Hatch"
       patternUnits="userSpaceOnUse"
       width="8"
       x="0"
       y="0">
      <path
         d="M8 4 l-4,4"
         linecap="square"
         stroke="#000000"
         stroke-width="0.25"
         id="path1002" />
      <path
         d="M6 2 l-4,4"
         linecap="square"
         stroke="#000000"
         stroke-width="0.25"
         id="path1004" />
      <path
         d="M4 0 l-4,4"
         linecap="square"
         stroke="#000000"
         stroke-width="0.25"
         id="path1006" />
    </pattern>
    <symbol
       id="*Model_Space" />
    <symbol
       id="*Paper_Space" />
    <symbol
       id="*Paper_Space0" />
    <symbol
       id="_DOT">
      <path
         d="m -243.81357,-215.72485 a 0.03935,0.03935 0 0 0 0.0787,0 0.03935,0.03935 0 0 0 -0.0787,0 z"
         style="fill:none;stroke:#000000;stroke-linecap:round"
         id="path1012"
         inkscape:connector-curvature="0" />
      <path
         d="m -243.85289,-215.72485 h -0.0786"
         style="fill:none;stroke:#000000;stroke-linecap:round"
         id="path1014"
         inkscape:connector-curvature="0" />
    </symbol>
  </defs>
  <g
     inkscape:groupmode="layer"
     inkscape:label="0"
     id="g1147"
     transform="translate(-335.4217,1121.2201)">
    <path
       d="m 358.2609,-1119.6461 -0.0458,10.5194"
       style="fill:none;stroke:#4b5257;stroke-width:0.43154877;stroke-miterlimit:4;stroke-dasharray:none;stroke-opacity:1"
       id="path1019"
       inkscape:connector-curvature="0" />
    <path
       d="m 371.23402,-1115.3764 -6.11926,8.3798"
       style="fill:none;stroke:#4b5257;stroke-width:0.49067062;stroke-miterlimit:4;stroke-dasharray:none;stroke-opacity:1"
       id="path1021"
       inkscape:connector-curvature="0" />
    <path
       d="m 369.42813,-1101.037 9.88099,-3.1824"
       style="fill:none;stroke:#4b5257;stroke-width:0.49058729;stroke-miterlimit:4;stroke-dasharray:none;stroke-opacity:1"
       id="path1023"
       inkscape:connector-curvature="0" />
    <path
       d="m 369.40593,-1093.6909 9.86147,3.2441"
       style="fill:none;stroke:#4b5257;stroke-width:0.49072853;stroke-miterlimit:4;stroke-dasharray:none;stroke-opacity:1"
       id="path1025"
       inkscape:connector-curvature="0" />
    <path
       d="m 365.06284,-1087.7662 6.06204,8.4272"
       style="fill:none;stroke:#4b5257;stroke-width:0.49072284;stroke-miterlimit:4;stroke-dasharray:none;stroke-opacity:1"
       id="path1027"
       inkscape:connector-curvature="0" />
    <path
       d="m 358.05176,-1085.5185 -0.0484,10.364"
       style="fill:none;stroke:#4b5257;stroke-width:0.43030441;stroke-miterlimit:4;stroke-dasharray:none;stroke-opacity:1"
       id="path1029"
       inkscape:connector-curvature="0" />
    <path
       d="m 351.09273,-1087.8508 -6.15931,8.3531"
       style="fill:none;stroke:#4b5257;stroke-width:0.49054828;stroke-miterlimit:4;stroke-dasharray:none;stroke-opacity:1"
       id="path1031"
       inkscape:connector-curvature="0" />
    <path
       d="m 336.92607,-1090.7034 9.89567,-3.1243"
       style="fill:none;stroke:#4b5257;stroke-width:0.49062359;stroke-miterlimit:4;stroke-dasharray:none;stroke-opacity:1"
       id="path1033"
       inkscape:connector-curvature="0" />
    <path
       d="m 337.0512,-1104.4754 9.83734,3.3019"
       style="fill:none;stroke:#4b5257;stroke-width:0.49048772;stroke-miterlimit:4;stroke-dasharray:none;stroke-opacity:1"
       id="path1035"
       inkscape:connector-curvature="0" />
    <path
       d="m 345.26085,-1115.5337 6.01395,8.4517"
       style="fill:none;stroke:#4b5257;stroke-width:0.49133858;stroke-miterlimit:4;stroke-dasharray:none;stroke-opacity:1"
       id="path1037"
       inkscape:connector-curvature="0" />
    <path
       d="m 345.26085,-1115.5337 13.00028,-4.1103 12.97289,4.2676 8.0751,11.157 -0.0417,13.7726 -8.14252,11.1078 -13.12155,4.1845 -13.06991,-4.3432 -8.00736,-11.2057 0.12514,-13.772 z"
       style="fill:none;stroke:#4b5257;stroke-width:3;stroke-miterlimit:4;stroke-dasharray:none;stroke-opacity:1"
       id="path1079"
       inkscape:connector-curvature="0" />
    <path
       d="m 351.2748,-1107.082 6.92497,-2.1894 6.91499,2.2748 4.31337,5.9596 -0.0222,7.3461 -4.34309,5.9247 -6.99883,2.232 -6.97128,-2.3166 -4.27099,-5.9769 0.0668,-7.3458 z"
       style="fill:none;stroke:#4b5257;stroke-width:0.49133858;stroke-miterlimit:4;stroke-dasharray:none;stroke-opacity:1"
       id="path1081"
       inkscape:connector-curvature="0" />
    <g
       aria-label="ORB10X"
       style="font-style:normal;font-weight:normal;font-size:40px;line-height:1.25;font-family:sans-serif;letter-spacing:0px;word-spacing:0px;fill:#000000;fill-opacity:1;stroke:none"
       id="text1532">
      <g
         aria-label="RB10X"
         style="font-style:normal;font-variant:normal;font-weight:bold;font-stretch:normal;font-size:58.66666794px;line-height:1.25;font-family:sans-serif;-inkscape-font-specification:'sans-serif, Bold';font-variant-ligatures:normal;font-variant-caps:normal;font-variant-numeric:normal;font-feature-settings:normal;text-align:start;letter-spacing:0px;word-spacing:0px;writing-mode:lr-tb;text-anchor:start;fill:#4b5257;fill-opacity:0.78431373;stroke:none"
         id="text853">
        <path
           d="m 410.48347,-1105.2491 q 0,-1.6042 -0.65885,-2.75 -0.65886,-1.1458 -2.26302,-1.8047 -1.11719,-0.4583 -2.60678,-0.5443 -1.48958,-0.1145 -3.46614,-0.1145 h -3.98177 v 11.4869 h 3.38021 q 2.63541,0 4.41145,-0.2578 1.77605,-0.2578 2.97917,-1.1745 1.14583,-0.888 1.66146,-1.9479 0.54427,-1.0885 0.54427,-2.8932 z m 17.15885,29.5911 h -13.43489 l -11.63021,-15.6406 h -5.07031 v 15.6406 H 386.5642 v -42.6536 h 18.44792 q 3.78125,0 6.5026,0.4297 2.72135,0.4297 5.09896,1.862 2.40625,1.4323 3.80989,3.7239 1.4323,2.263 1.4323,5.7005 0,4.7266 -2.20573,7.7058 -2.17709,2.9791 -6.24479,4.9557 z"
           style="font-style:normal;font-variant:normal;font-weight:bold;font-stretch:normal;font-size:58.66666794px;font-family:sans-serif;-inkscape-font-specification:'sans-serif, Bold';font-variant-ligatures:normal;font-variant-caps:normal;font-variant-numeric:normal;font-feature-settings:normal;text-align:start;writing-mode:lr-tb;text-anchor:start;fill:#4b5257;fill-opacity:0.78431373"
           id="path855" />
        <path
           d="m 469.00691,-1088.7205 q 0,3.0938 -1.26042,5.5287 -1.23177,2.4349 -3.40885,4.039 -2.52083,1.8907 -5.55729,2.6928 -3.00782,0.802 -7.64844,0.802 h -18.61979 v -42.6536 h 16.55729 q 5.15625,0 7.53385,0.3437 2.40625,0.3438 4.75521,1.5183 2.4349,1.2317 3.60938,3.3229 1.20312,2.0625 1.20312,4.7266 0,3.0937 -1.63281,5.4713 -1.63281,2.349 -4.61198,3.6667 v 0.2291 q 4.18229,0.8308 6.61719,3.4375 2.46354,2.6068 2.46354,6.875 z m -14.09375,-17.5312 q 0,-1.0599 -0.54427,-2.1198 -0.51563,-1.0599 -1.86198,-1.5755 -1.20313,-0.4584 -3.00781,-0.487 -1.77605,-0.057 -5.01302,-0.057 h -1.03125 v 9.0234 h 1.71875 q 2.60677,0 4.4401,-0.086 1.83333,-0.086 2.89323,-0.5729 1.48958,-0.6589 1.94792,-1.6901 0.45833,-1.0599 0.45833,-2.4349 z m 2.69271,17.3594 q 0,-2.0339 -0.80209,-3.1224 -0.77343,-1.1172 -2.66406,-1.6615 -1.28906,-0.3724 -3.55208,-0.401 -2.26302,-0.029 -4.72656,-0.029 h -2.40625 v 10.6276 h 0.80208 q 4.64062,0 6.64583,-0.029 2.00521,-0.029 3.69531,-0.7448 1.71875,-0.7162 2.34896,-1.8906 0.65886,-1.2032 0.65886,-2.75 z"
           style="font-style:normal;font-variant:normal;font-weight:bold;font-stretch:normal;font-size:58.66666794px;font-family:sans-serif;-inkscape-font-specification:'sans-serif, Bold';font-variant-ligatures:normal;font-variant-caps:normal;font-variant-numeric:normal;font-feature-settings:normal;text-align:start;writing-mode:lr-tb;text-anchor:start;fill:#4b5257;fill-opacity:0.78431373"
           id="path857" />
        <path
           d="M 507.85066,-1075.658 H 479.3767 v -7.4479 h 8.9948 v -22.5442 h -8.9948 v -6.961 q 2.0625,0 3.95313,-0.2292 1.89062,-0.2578 3.15104,-0.8593 1.48958,-0.7162 2.23438,-1.862 0.74479,-1.1458 0.85937,-2.8646 h 9.48177 v 35.3203 h 8.79427 z"
           style="font-style:normal;font-variant:normal;font-weight:bold;font-stretch:normal;font-size:58.66666794px;font-family:sans-serif;-inkscape-font-specification:'sans-serif, Bold';font-variant-ligatures:normal;font-variant-caps:normal;font-variant-numeric:normal;font-feature-settings:normal;text-align:start;writing-mode:lr-tb;text-anchor:start;fill:#4b5257;fill-opacity:0.78431373"
           id="path859" />
        <path
           d="m 551.96524,-1096.9991 q 0,5.3854 -0.97396,9.6536 -0.97396,4.2396 -3.03646,6.961 -2.11979,2.7786 -5.4427,4.2109 -3.32292,1.4037 -8.19271,1.4037 -4.78386,0 -8.16407,-1.4323 -3.3802,-1.4323 -5.47135,-4.2396 -2.11979,-2.8073 -3.0651,-6.961 -0.94532,-4.1822 -0.94532,-9.5677 0,-5.5573 0.97396,-9.6536 0.97396,-4.0964 3.09375,-6.9323 2.11979,-2.8073 5.5,-4.2109 3.38021,-1.4037 8.07813,-1.4037 4.89844,0 8.22135,1.461 3.32292,1.4322 5.44271,4.2968 2.09115,2.8073 3.03646,6.9323 0.94531,4.0964 0.94531,9.4818 z m -11.08594,0 q 0,-7.7344 -1.51823,-11 -1.51822,-3.2943 -5.04166,-3.2943 -3.52344,0 -5.04167,3.2943 -1.51823,3.2656 -1.51823,11.0573 0,7.5911 1.54688,10.9427 1.54687,3.3516 5.01302,3.3516 3.46614,0 5.01302,-3.3516 1.54687,-3.3516 1.54687,-11 z"
           style="font-style:normal;font-variant:normal;font-weight:bold;font-stretch:normal;font-size:58.66666794px;font-family:sans-serif;-inkscape-font-specification:'sans-serif, Bold';font-variant-ligatures:normal;font-variant-caps:normal;font-variant-numeric:normal;font-feature-settings:normal;text-align:start;writing-mode:lr-tb;text-anchor:start;fill:#4b5257;fill-opacity:0.78431373"
           id="path861" />
        <path
           d="m 599.28817,-1075.658 h -12.71875 l -9.19531,-14.0364 -9.36719,14.0364 h -12.14584 l 15.125,-21.4843 -14.80989,-21.1693 h 12.6901 l 8.88021,13.2917 9.13802,-13.2917 H 599.059 l -14.89583,20.7396 z"
           style="font-style:normal;font-variant:normal;font-weight:bold;font-stretch:normal;font-size:58.66666794px;font-family:sans-serif;-inkscape-font-specification:'sans-serif, Bold';font-variant-ligatures:normal;font-variant-caps:normal;font-variant-numeric:normal;font-feature-settings:normal;text-align:start;writing-mode:lr-tb;text-anchor:start;fill:#4b5257;fill-opacity:0.78431373"
           id="path863" />
      </g>
    </g>
  </g>
</svg>
